<svg width="137" height="35" viewBox="0 0 137 35" fill="none" xmlns="http://www.w3.org/2000/svg">
<g clip-path="url(#clip0_947_3112)">
<path d="M31.1721 23.8227H27.9644V7.82812H34.3799C34.9837 7.82812 35.5498 7.90339 36.0781 8.05393C36.6065 8.20447 37.1348 8.43028 37.5877 8.69372C38.0783 8.95716 38.4934 9.29587 38.8708 9.70985C39.2482 10.0862 39.5878 10.5378 39.8897 11.027C40.1539 11.5163 40.3803 12.0055 40.5313 12.5701C40.6822 13.0969 40.7577 13.6615 40.7577 14.2636C40.7577 15.1292 40.6067 15.9572 40.2671 16.7475C39.9274 17.5378 39.4746 18.2152 38.9085 18.7797C38.3424 19.3443 37.6631 19.8335 36.8706 20.1346C36.0781 20.4733 35.2479 20.6238 34.3799 20.6238H31.1721V23.8227ZM31.1721 11.027V17.4249H34.3799C34.8328 17.4249 35.2479 17.3496 35.6253 17.1615C36.0026 17.0109 36.3423 16.7475 36.6442 16.484C36.9461 16.183 37.1725 15.8443 37.3235 15.4679C37.4744 15.0916 37.5877 14.6776 37.5877 14.226C37.5877 13.7744 37.5122 13.3604 37.3235 12.984C37.1725 12.6077 36.9084 12.269 36.6442 11.9679C36.3423 11.6668 36.0026 11.441 35.6253 11.2905C35.2479 11.14 34.8328 11.027 34.3799 11.027H31.1721Z" fill="white"/>
<path d="M53.966 23.8227H53.2113L52.0414 22.1668C51.7395 22.4302 51.4376 22.656 51.1356 22.8818C50.796 23.1076 50.4564 23.2958 50.1167 23.484C49.7771 23.6345 49.3997 23.785 49.0223 23.8979C48.6449 24.0108 48.2675 24.0485 47.8901 24.0485C47.0599 24.0485 46.2674 23.8979 45.5126 23.6345C44.7578 23.3334 44.1163 22.9571 43.5502 22.3926C42.9841 21.8657 42.569 21.1883 42.2294 20.3979C41.9275 19.6076 41.7388 18.742 41.7388 17.7259C41.7388 16.785 41.8897 15.9571 42.2294 15.1668C42.569 14.3764 42.9841 13.7367 43.5502 13.1721C44.1163 12.6076 44.7578 12.1936 45.5126 11.8549C46.2674 11.5539 47.0599 11.4033 47.8901 11.4033C48.2675 11.4033 48.6449 11.441 49.06 11.5539C49.4374 11.6668 49.8148 11.7797 50.1544 11.9678C50.4941 12.156 50.8715 12.3442 51.1734 12.57C51.513 12.7958 51.8149 13.0592 52.0791 13.3227L53.249 11.8926H54.0038V23.8227H53.966ZM50.8715 17.7259C50.8715 17.3119 50.796 16.8979 50.645 16.5216C50.4941 16.1453 50.2677 15.7689 50.0035 15.4678C49.7393 15.1668 49.3997 14.941 49.0223 14.7528C48.6449 14.5646 48.2675 14.4893 47.8524 14.4893C47.4373 14.4893 47.0599 14.5646 46.6825 14.7151C46.3051 14.8657 46.0032 15.0539 45.739 15.3549C45.4749 15.6184 45.2484 15.9571 45.0975 16.3711C44.9465 16.785 44.8711 17.2367 44.8711 17.7635C44.8711 18.2904 44.9465 18.742 45.0975 19.156C45.2484 19.57 45.4749 19.9087 45.739 20.1721C46.0032 20.4356 46.3429 20.6614 46.6825 20.8119C47.0599 20.9625 47.4373 21.0377 47.8524 21.0377C48.2675 21.0377 48.6449 20.9625 49.0223 20.7743C49.3997 20.5861 49.7016 20.3603 50.0035 20.0592C50.2677 19.7582 50.4941 19.4194 50.645 19.0055C50.796 18.5539 50.8715 18.1775 50.8715 17.7259Z" fill="white"/>
<path d="M59.174 28.3764V25.3281L60.8722 25.3657C61.1741 25.3657 61.4761 25.3281 61.7402 25.2152C62.0044 25.1023 62.2686 24.9894 62.495 24.8012C62.7214 24.613 62.9478 24.4248 63.0988 24.199C63.2875 23.9732 63.4384 23.7098 63.5517 23.4463C63.212 23.5969 62.8724 23.7474 62.5327 23.8603C62.1931 24.0109 61.8534 24.0861 61.476 24.0861C60.7213 24.0861 60.042 23.9732 59.4004 23.7098C58.7589 23.4463 58.1928 23.07 57.7022 22.6184C57.2116 22.1291 56.8342 21.5646 56.5323 20.8496C56.2681 20.1721 56.1172 19.3818 56.1172 18.5539V11.8926H59.174V18.4786C59.174 18.8926 59.2495 19.2689 59.3627 19.57C59.4759 19.8711 59.6646 20.1345 59.8533 20.3603C60.0797 20.5861 60.3062 20.7367 60.5703 20.8496C60.8345 20.9625 61.1364 21.0001 61.476 21.0001C61.778 21.0001 62.0799 20.9248 62.3818 20.7743C62.6459 20.6238 62.9101 20.4356 63.0988 20.2098C63.3252 19.984 63.4762 19.7205 63.5894 19.4195C63.7026 19.1184 63.7781 18.8173 63.7781 18.4786V11.8926H66.8349V22.3173C66.8349 23.1453 66.6462 23.9356 66.3443 24.6883C66.0424 25.441 65.5895 26.0807 65.0235 26.6076C64.4574 27.1721 63.8158 27.5861 63.0988 27.9248C62.344 28.2259 61.5893 28.4141 60.7213 28.4141L59.174 28.3764Z" fill="white"/>
<path d="M84.4211 23.8229H81.3643V16.2208C81.3643 15.9949 81.3265 15.8068 81.251 15.6186C81.1756 15.4304 81.0623 15.2799 80.9114 15.1294C80.7604 14.9788 80.6095 14.8659 80.4208 14.7906C80.2321 14.7154 80.0434 14.6777 79.817 14.6777C79.5905 14.6777 79.4019 14.7154 79.2132 14.7906C79.0245 14.8659 78.8735 14.9788 78.7226 15.1294C78.5716 15.2799 78.4584 15.4304 78.3829 15.6186C78.3074 15.8068 78.2697 15.9949 78.2697 16.2208V23.7853H75.2129V16.2208C75.2129 15.9949 75.1752 15.8068 75.0997 15.6186C75.0242 15.4304 74.911 15.2799 74.76 15.1294C74.6091 14.9788 74.4581 14.8659 74.2694 14.7906C74.0807 14.7154 73.892 14.6777 73.6656 14.6777C73.4392 14.6777 73.2505 14.7154 73.0618 14.7906C72.8731 14.8659 72.7222 14.9788 72.5712 15.1294C72.4202 15.2799 72.307 15.4304 72.2316 15.6186C72.1561 15.8068 72.1183 15.9949 72.1183 16.2208V23.7853H69.0615V11.8928H69.8163L70.6465 12.796C71.0617 12.4573 71.5523 12.1562 72.0429 11.9681C72.5712 11.7799 73.0995 11.667 73.6279 11.667C74.194 11.667 74.7223 11.7799 75.2506 11.9681C75.779 12.1939 76.2696 12.5326 76.647 13.0595C76.8356 12.796 77.0621 12.6079 77.2885 12.4197C77.5149 12.2315 77.7791 12.081 78.0433 11.9681C78.3074 11.8552 78.5716 11.7799 78.8735 11.7423C79.1754 11.7046 79.4396 11.667 79.7038 11.667C80.3453 11.667 80.9491 11.7799 81.4775 12.0057C82.0435 12.2315 82.5341 12.5702 82.9493 12.9842C83.3644 13.3982 83.704 13.8874 83.9305 14.4519C84.1569 15.0165 84.2701 15.6186 84.2701 16.2208V23.8229H84.4211Z" fill="white"/>
<path d="M98.2331 23.8227H97.4783L96.3085 22.1668C96.0065 22.4302 95.7046 22.656 95.4027 22.8818C95.0631 23.1076 94.7234 23.2958 94.3838 23.484C94.0442 23.6345 93.6668 23.785 93.2894 23.8979C92.912 24.0108 92.5346 24.0485 92.1572 24.0485C91.327 24.0485 90.5345 23.8979 89.7797 23.6345C89.0249 23.3334 88.3834 22.9571 87.8173 22.3926C87.2512 21.8657 86.8361 21.1883 86.4965 20.3979C86.1946 19.6076 86.0059 18.742 86.0059 17.7259C86.0059 16.785 86.1568 15.9571 86.4965 15.1668C86.8361 14.3764 87.2512 13.7367 87.8173 13.1721C88.3834 12.6076 89.0249 12.1936 89.7797 11.8549C90.5345 11.5539 91.327 11.4033 92.1572 11.4033C92.5346 11.4033 92.912 11.441 93.3271 11.5539C93.7045 11.6668 94.0819 11.7797 94.4215 11.9678C94.7612 12.156 95.1386 12.3442 95.4405 12.57C95.7801 12.7958 96.082 13.0592 96.3462 13.3227L97.5161 11.8926H98.2709V23.8227H98.2331ZM95.1386 17.7259C95.1386 17.3119 95.0631 16.8979 94.9121 16.5216C94.7612 16.1453 94.5348 15.7689 94.2706 15.4678C94.0064 15.1668 93.6668 14.941 93.2894 14.7528C92.912 14.5646 92.5346 14.4893 92.1195 14.4893C91.7044 14.4893 91.327 14.5646 90.9496 14.7151C90.5722 14.8657 90.2703 15.0539 90.0061 15.3549C89.742 15.6184 89.5155 15.9571 89.3646 16.3711C89.2136 16.785 89.1382 17.2367 89.1382 17.7635C89.1382 18.2904 89.2136 18.742 89.3646 19.156C89.5155 19.57 89.742 19.9087 90.0061 20.1721C90.2703 20.4356 90.61 20.6614 90.9496 20.8119C91.327 20.9625 91.7044 21.0377 92.1195 21.0377C92.5346 21.0377 92.912 20.9625 93.2894 20.7743C93.6668 20.5861 93.9687 20.3603 94.2706 20.0592C94.5348 19.7582 94.7612 19.4194 94.9121 19.0055C95.0631 18.5539 95.1386 18.1775 95.1386 17.7259Z" fill="white"/>
<path d="M106.573 23.823C105.819 23.823 105.139 23.6724 104.498 23.409C103.856 23.1455 103.29 22.7316 102.799 22.2423C102.309 21.7531 101.932 21.1885 101.63 20.5488C101.365 19.909 101.214 19.1939 101.214 18.4789V14.9412H99.7427V11.8929H101.214V7.11328H104.271V11.8929H108.913V14.9412H104.271V18.4789C104.271 18.7799 104.347 19.081 104.46 19.3821C104.573 19.6455 104.762 19.909 104.951 20.0972C105.177 20.323 105.403 20.4735 105.705 20.5864C106.007 20.6993 106.309 20.7746 106.611 20.7746H108.913V23.823H106.573Z" fill="white"/>
<path d="M116.574 23.823C115.82 23.823 115.14 23.6724 114.499 23.409C113.857 23.1455 113.291 22.7316 112.8 22.2423C112.31 21.7531 111.932 21.1885 111.631 20.5488C111.366 19.909 111.215 19.1939 111.215 18.4789V14.9412H109.744V11.8929H111.215V7.11328H114.272V11.8929H118.914V14.9412H114.272V18.4789C114.272 18.7799 114.348 19.081 114.461 19.3821C114.574 19.6455 114.763 19.909 114.952 20.0972C115.178 20.323 115.404 20.4735 115.706 20.5864C116.008 20.6993 116.31 20.7746 116.612 20.7746H118.914V23.823H116.574Z" fill="white"/>
<path d="M124.197 8.6182C124.197 8.91927 124.16 9.18271 124.046 9.40852C123.933 9.67196 123.782 9.86013 123.594 10.0483C123.405 10.2365 123.178 10.387 122.952 10.4999C122.688 10.6128 122.424 10.6505 122.159 10.6505C121.858 10.6505 121.593 10.6128 121.367 10.4999C121.103 10.387 120.914 10.2365 120.725 10.0483C120.537 9.86013 120.386 9.63432 120.273 9.40852C120.159 9.14508 120.122 8.88164 120.122 8.6182C120.122 8.35475 120.159 8.09131 120.273 7.82787C120.386 7.56443 120.537 7.37626 120.725 7.18809C120.914 6.99992 121.141 6.84938 121.367 6.73648C121.631 6.62357 121.895 6.58594 122.159 6.58594C122.461 6.58594 122.726 6.62357 122.952 6.73648C123.216 6.84938 123.405 6.99992 123.594 7.18809C123.782 7.37626 123.933 7.60207 124.046 7.82787C124.16 8.09131 124.197 8.35475 124.197 8.6182ZM123.707 23.8225H120.65V11.8924H123.707V23.8225Z" fill="white"/>
<path d="M136.5 14.263L134.274 16.5211C134.16 16.22 134.009 15.9189 133.821 15.6931C133.632 15.4297 133.406 15.2415 133.179 15.0533C132.953 14.8652 132.689 14.7523 132.387 14.677C132.085 14.6017 131.821 14.5265 131.519 14.5265C131.104 14.5265 130.726 14.6017 130.349 14.7899C129.971 14.9781 129.67 15.2039 129.405 15.5049C129.141 15.806 128.915 16.1824 128.764 16.5963C128.613 17.0103 128.537 17.4996 128.537 17.9888C128.537 18.4028 128.613 18.7791 128.764 19.1555C128.915 19.5318 129.141 19.8329 129.405 20.0963C129.67 20.3598 130.009 20.5856 130.349 20.7361C130.726 20.8867 131.104 20.9619 131.519 20.9619C131.821 20.9619 132.123 20.9243 132.387 20.849C132.651 20.7738 132.915 20.6609 133.179 20.5103C133.406 20.3598 133.632 20.1716 133.821 19.9458C134.009 19.72 134.16 19.4942 134.274 19.2308L136.5 21.4888C136.198 21.9028 135.896 22.2415 135.519 22.5802C135.142 22.8813 134.764 23.1824 134.311 23.4082C133.896 23.634 133.443 23.7845 132.953 23.8974C132.462 24.0103 132.009 24.0856 131.481 24.0856C130.651 24.0856 129.858 23.9351 129.103 23.5963C128.349 23.2953 127.707 22.8437 127.141 22.2791C126.575 21.7146 126.16 21.0748 125.82 20.3598C125.518 19.6071 125.33 18.8544 125.33 17.9888C125.33 17.0856 125.481 16.22 125.82 15.4297C126.122 14.6394 126.575 13.9243 127.141 13.3598C127.707 12.7576 128.349 12.306 129.103 11.9673C129.858 11.6286 130.651 11.4404 131.481 11.4404C131.972 11.4404 132.462 11.5157 132.953 11.6286C133.443 11.7415 133.896 11.9297 134.311 12.1931C134.764 12.4189 135.142 12.72 135.519 13.0963C135.896 13.3974 136.198 13.8114 136.5 14.263Z" fill="white"/>
<path opacity="0.5" d="M22.5675 1.01616C22.3034 0.225839 21.4354 -0.18814 20.6429 0.0753013L19.3975 0.48928H19.3598L2.07556 6.24734C1.96234 6.28498 1.88686 6.32261 1.77365 6.36025C1.434 6.54842 1.16983 6.84949 1.01888 7.22584C0.754711 8.01616 1.16983 8.88175 1.96234 9.14519L9.20812 11.5538L16.2652 9.22046C16.6803 9.06993 17.1332 9.29573 17.2842 9.70971C17.3596 9.78498 17.3596 9.86025 17.3596 9.97315V14.9409C17.3596 15.6183 16.9068 16.2581 16.2652 16.4463L13.5858 17.3495V25.0269L20.5674 22.6936C21.8128 22.2796 22.643 21.1506 22.643 19.8334V1.50541C22.643 1.35487 22.6053 1.1667 22.5675 1.01616Z" fill="white"/>
<path d="M11.5102 12.3066L2.00014 9.1453C1.20763 8.88186 0.792507 8.01627 1.05668 7.22594C1.16989 6.8496 1.43406 6.54852 1.81145 6.36035C0.717031 6.8496 0 7.941 0 9.10766V28.8657C0 30.1453 0.830246 31.312 2.07561 31.7259L11.6234 34.8872C12.4159 35.1507 13.2839 34.7367 13.5481 33.9464C13.5858 33.7958 13.6236 33.6453 13.6236 33.4571V15.1668C13.5858 13.8872 12.7556 12.7206 11.5102 12.3066Z" fill="white"/>
<path opacity="0.5" d="M2.00022 6.2847C1.92474 6.32234 1.84926 6.32234 1.81152 6.35997C1.92474 6.32234 2.00022 6.2847 2.11343 6.24707L2.00022 6.2847Z" fill="#1D1D1B"/>
</g>
<defs>
<clipPath id="clip0_947_3112">
<rect width="136.5" height="35" fill="white"/>
</clipPath>
</defs>
</svg>
